<svg xmlns="http://www.w3.org/2000/svg" viewBox="0 0 357 120" role="img" aria-labelledby="t d">
  <title id="t">ROSTR</title><desc id="d">ROSTR athletic wordmark with its gold R monogram.</desc>
  <defs>
    <linearGradient id="bg" x1="16" y1="10" x2="112" y2="118" gradientUnits="userSpaceOnUse">
      <stop stop-color="#1C1F26"/><stop offset="1" stop-color="#070810"/>
    </linearGradient>
    <linearGradient id="rim" x1="18" y1="10" x2="110" y2="118" gradientUnits="userSpaceOnUse">
      <stop stop-color="#F2E8C6"/><stop offset=".52" stop-color="#D4AF37"/><stop offset="1" stop-color="#B8860B"/>
    </linearGradient>
    <linearGradient id="gold" x1="0" y1="0" x2="0" y2="1">
      <stop stop-color="#F7EEC9"/><stop offset=".5" stop-color="#E3C24E"/><stop offset="1" stop-color="#B8860B"/>
    </linearGradient>
    <radialGradient id="sheen" cx="50%" cy="28%" r="72%">
      <stop stop-color="#D4AF37" stop-opacity=".16"/><stop offset="1" stop-color="#D4AF37" stop-opacity="0"/>
    </radialGradient>
  </defs>
  <g transform="translate(2 4) scale(.875)">
  <rect x="4" y="4" width="120" height="120" rx="28" fill="url(#bg)"/>
  <rect x="4" y="4" width="120" height="120" rx="28" fill="url(#sheen)"/>
  <rect x="6.5" y="6.5" width="115" height="115" rx="25.5" fill="none" stroke="url(#rim)" stroke-width="3"/>
    <path fill="url(#gold)" d="M65.00913456976306 99.94285714285714 61.757714239068626 71.92857142857143Q61.71142864917135 71.50571428571428 61.28857150631421 71.50571428571428H59.702857220599924Q59.1742857920285 71.50571428571428 59.09999992225723 72.03428571428572L55.207420346243 99.73142857142857Q55.13313447647173 100.26 54.71113436763184 100.63Q54.28913425879196 101.0 53.760562830220536 101.0H38.74913425879196Q38.22056283022053 101.0 37.90256293906042 100.63Q37.5845630479003 100.26 37.65884891767156 99.73142857142857L47.70229851074646 28.26857142857142Q47.77658438051773 27.739999999999995 48.198584489357614 27.369999999999997Q48.620584598197496 27.0 49.14915602676893 27.0H71.87772745534036Q78.00915602676892 27.0 82.35772660016983 29.90714285714286Q86.70629717357073 32.81428571428572 88.56086706283523 38.04714285714286Q90.41543695209971 43.279999999999994 89.4794349929818 49.94Q88.64743325154363 55.86 85.81914615343652 60.56428571428571Q82.99085905532941 65.26857142857142 78.67828678713602 68.12285714285714Q78.45200104175319 68.22857142857143 78.32400099510753 68.38714285714286Q78.19600094846186 68.54571428571428 78.27200088626765 68.75714285714285L83.03999183700864 99.52L83.08627742690592 99.94285714285714Q82.93770568736339 101.0 81.77484854450626 101.0H66.34056283022053Q65.17770568736339 101.0 65.00913456976306 99.94285714285714ZM63.24515145549377 42.54 61.13543275398987 57.551428571428566Q61.0611468842186 58.08 61.58971831279003 58.08H64.54971831279002Q67.40400402707574 58.08 69.39257607758938 55.965714285714284Q71.381148128103 53.85142857142857 71.90114921650185 50.15142857142857Q72.4508646528092 46.239999999999995 71.05657956046568 44.12571428571428Q69.66229446812217 42.01142857142857 66.80800875383645 42.01142857142857H63.84800875383646Q63.31943732526503 42.01142857142857 63.24515145549377 42.54Z"/>
  </g>
  <path fill="url(#gold)" d="M161.7392421092827 88.49162011173183 159.161866790523 66.28491620111731Q159.1251765675182 65.94972067039106 158.78998103679194 65.94972067039106H157.53299779656848Q157.11400338316065 65.94972067039106 157.0551175585647 66.36871508379888L153.96950034973565 88.32402234636871Q153.91061452513966 88.74301675977652 153.57609835853702 89.036312849162Q153.24158219193436 89.32960893854748 152.82258777852653 89.32960893854748H140.9231464377444Q140.5041520243366 89.32960893854748 140.2520760121683 89.036312849162Q140.0 88.74301675977652 140.058885824596 88.32402234636871L148.02024930997166 31.675977653631286Q148.07913513456765 31.256983240223462 148.41365130117032 30.963687150837988Q148.74816746777296 30.670391061452513 149.1671618811808 30.670391061452513H167.1839216577171Q172.04425685324782 30.670391061452513 175.49133453864036 32.97486033519553Q178.9384122240329 35.279329608938546 180.40851518623106 39.427374301675975Q181.87861814842924 43.575418994413404 181.13665675851996 48.85474860335195Q180.47713552304506 53.54748603351955 178.23517458916882 57.27653631284916Q175.9932136552926 61.005586592178766 172.57467154325644 63.268156424581Q172.39529661297414 63.351955307262564 172.2938319829138 63.47765363128491Q172.1923673528534 63.60335195530726 172.2526119056966 63.77094972067039L176.03216082482544 88.15642458100558L176.0688510478302 88.49162011173183Q175.95107939863826 89.32960893854748 175.02929168914108 89.32960893854748H162.79465481763268Q161.87286710813547 89.32960893854748 161.7392421092827 88.49162011173183ZM160.34094657102003 42.988826815642454 158.66858915249438 54.88826815642458Q158.6097033278984 55.307262569832396 159.02869774130622 55.307262569832396H161.37506645639002Q163.63763628879224 55.307262569832396 165.21396171008115 53.63128491620111Q166.7902871313701 51.95530726256983 167.2024879035419 49.02234636871508Q167.63824300555214 45.9217877094972 166.533004181031 44.24581005586592Q165.42776535650987 42.56983240223463 163.16519552410762 42.56983240223463H160.81882680902385Q160.39983239561602 42.56983240223463 160.34094657102003 42.988826815642454ZM181.8980871728653 72.6536312849162 185.45479097846214 47.3463687150838Q186.56184448086645 39.46927374301676 192.0456900529909 34.73463687150838Q197.52953562511533 30.0 205.65802724522706 30.0Q213.70271998265724 30.0 217.93954480159425 34.73463687150838Q222.17636962053126 39.46927374301676 221.06931611812695 47.3463687150838L217.5126123125301 72.6536312849162Q216.3937816452066 80.6145251396648 210.83202577286016 85.3072625698324Q205.27026990051377 90.0 197.22557716308359 90.0Q189.09708554297185 90.0 184.9381710242568 85.3072625698324Q180.77925650554178 80.6145251396648 181.8980871728653 72.6536312849162ZM203.51955763295607 73.24022346368714 207.24114174742164 46.75977653631285Q207.5591252002399 44.497206703910614 206.69418522296786 43.19832402234637Q205.82924524569583 41.89944134078212 203.9856698267014 41.89944134078212Q202.142094407707 41.89944134078212 200.9539617592807 43.19832402234637Q199.7658291108544 44.497206703910614 199.44784565803616 46.75977653631285L195.72626154357062 73.24022346368714Q195.40827809075233 75.50279329608938 196.2313186266836 76.80167597765362Q197.05435916261484 78.10055865921787 198.89793458160926 78.10055865921787Q200.74151000060368 78.10055865921787 201.97154209037075 76.80167597765362Q203.2015741801378 75.50279329608938 203.51955763295607 73.24022346368714ZM221.7066326313499 74.41340782122904 222.07172474384492 71.81564245810056Q222.13061056844091 71.39664804469274 222.46512673504355 71.10335195530726Q222.79964290164622 70.81005586592178 223.21863731505402 70.81005586592178H234.95048089047305Q235.36947530388085 70.81005586592178 235.62155131604914 71.10335195530726Q235.87362732821745 71.39664804469274 235.81474150362146 71.81564245810056L235.54386671048 73.74301675977654Q235.2612147524193 75.75418994413407 236.06002159438856 76.92737430167597Q236.85882843635784 78.10055865921787 238.367208324626 78.10055865921787Q239.87558821289414 78.10055865921787 240.99826709014127 76.96927374301674Q242.1209459673884 75.83798882681563 242.36826643069148 74.07821229050279Q242.63914122383295 72.15083798882681 241.34863888656992 70.60055865921788Q240.05813654930685 69.05027932960894 235.99230631635098 65.78212290502793Q232.22634011936378 62.765363128491614 229.88042507375079 60.377094972067034Q227.5345100281378 57.988826815642454 226.10766523552758 54.427374301675975Q224.68082044291737 50.865921787709496 225.3403416783923 46.1731843575419Q226.0116400787864 41.39664804469273 228.66670684361085 37.70949720670391Q231.3217736084353 34.022346368715084 235.50107361118873 32.011173184357546Q239.68037361394215 30.0 244.708306574836 30.0Q249.8200384184114 30.0 253.42814592258387 32.05307262569832Q257.03625342675633 34.10614525139665 258.64904109623205 37.83519553072625Q260.2618287657078 41.564245810055866 259.5787532003945 46.42458100558659L259.2961012423338 48.43575418994413Q259.23721541773784 48.85474860335195 258.9026992511352 49.14804469273743Q258.5681830845325 49.4413407821229 258.1491886711247 49.4413407821229H246.50114397838726Q246.08214956497943 49.4413407821229 245.83007355281114 49.14804469273743Q245.57799754064285 48.85474860335195 245.63688336523882 48.43575418994413L245.96664398297628 46.08938547486033Q246.22574161119857 44.24581005586592 245.38503532788854 43.07262569832402Q244.5443290445785 41.89944134078212 243.03594915631032 41.89944134078212Q241.52756926804216 41.89944134078212 240.44090124967624 43.07262569832402Q239.3542332313103 44.24581005586592 239.08335843816883 46.1731843575419Q238.78892931518897 48.268156424581 239.97796702239165 49.94413407821229Q241.16700472959434 51.62011173184357 245.0770143621063 54.80446927374301Q249.80281721984267 58.74301675977653 252.14284368299607 61.1731843575419Q254.48287014614948 63.60335195530726 255.5731606797862 66.57821229050279Q256.66345121342295 69.55307262569832 256.09814729730164 73.5754189944134Q255.03820245457408 81.11731843575419 249.67937584234838 85.55865921787709Q244.32054923012268 90.0 236.61105202341875 90.0Q231.49932017984335 90.0 227.92133495209248 88.03072625698323Q224.34334972434158 86.06145251396647 222.7070077250275 82.5Q221.07066572571338 78.93854748603351 221.7066326313499 74.41340782122904ZM302.4615900920946 31.675977653631286 301.0718846316296 41.564245810055866Q301.0129988070336 41.98324022346368 300.67848264043096 42.27653631284916Q300.3439664738283 42.56983240223463 299.9249720604205 42.56983240223463H289.5339106079065Q289.1149161944987 42.56983240223463 289.0560303699027 42.988826815642454L282.68458414861834 88.32402234636871Q282.6256983240223 88.74301675977652 282.2911821574197 89.036312849162Q281.95666599081704 89.32960893854748 281.5376715774092 89.32960893854748H269.63823023662707Q269.21923582321926 89.32960893854748 268.967159811051 89.036312849162Q268.7150837988827 88.74301675977652 268.77396962347865 88.32402234636871L275.145415844763 42.988826815642454Q275.20430166935904 42.56983240223463 274.7853072559512 42.56983240223463H264.81324021684503Q264.39424580343723 42.56983240223463 264.14216979126894 42.27653631284916Q263.89009377910065 41.98324022346368 263.9489796036966 41.564245810055866L265.3386850641616 31.675977653631286Q265.39757088875757 31.256983240223462 265.73208705536024 30.963687150837988Q266.0666032219629 30.670391061452513 266.4855976353707 30.670391061452513H301.5973294789461Q302.01632389235397 30.670391061452513 302.26839990452225 30.963687150837988Q302.52047591669054 31.256983240223462 302.4615900920946 31.675977653631286ZM320.8733203215732 88.49162011173183 318.2959450028135 66.28491620111731Q318.2592547798087 65.94972067039106 317.92405924908246 65.94972067039106H316.667076008859Q316.24808159545114 65.94972067039106 316.1891957708552 66.36871508379888L313.10357856202614 88.32402234636871Q313.0446927374302 88.74301675977652 312.7101765708275 89.036312849162Q312.37566040422485 89.32960893854748 311.95666599081704 89.32960893854748H300.0572246500349Q299.63823023662707 89.32960893854748 299.3861542244588 89.036312849162Q299.1340782122905 88.74301675977652 299.19296403688645 88.32402234636871L307.1543275222622 31.675977653631286Q307.21321334685814 31.256983240223462 307.5477295134608 30.963687150837988Q307.8822456800634 30.670391061452513 308.3012400934713 30.670391061452513H326.3179998700076Q331.1783350655383 30.670391061452513 334.6254127509309 32.97486033519553Q338.0724904363234 35.279329608938546 339.5425933985216 39.427374301675975Q341.01269636071976 43.575418994413404 340.27073497081045 48.85474860335195Q339.6112137353356 53.54748603351955 337.3692528014593 57.27653631284916Q335.1272918675831 61.005586592178766 331.70874975554693 63.268156424581Q331.52937482526465 63.351955307262564 331.4279101952043 63.47765363128491Q331.3264455651439 63.60335195530726 331.3866901179871 63.77094972067039L335.16623903711593 88.15642458100558L335.2029292601207 88.49162011173183Q335.0851576109288 89.32960893854748 334.16336990143157 89.32960893854748H321.9287330299232Q321.006945320426 89.32960893854748 320.8733203215732 88.49162011173183ZM319.4750247833105 42.988826815642454 317.80266736478484 54.88826815642458Q317.7437815401889 55.307262569832396 318.16277595359674 55.307262569832396H320.5091446686805Q322.7717145010827 55.307262569832396 324.34803992237164 53.63128491620111Q325.9243653436606 51.95530726256983 326.3365661158324 49.02234636871508Q326.7723212178426 45.9217877094972 325.6670823933215 44.24581005586592Q324.5618435688003 42.56983240223463 322.2992737363981 42.56983240223463H319.95290502131434Q319.5339106079065 42.56983240223463 319.4750247833105 42.988826815642454Z"/>
</svg>
